<?xml version="1.0" encoding="UTF-8"?>
<svg xmlns="http://www.w3.org/2000/svg" xmlns:xlink="http://www.w3.org/1999/xlink" width="35pt" height="35pt" viewBox="0 0 35 35" version="1.1">
<g id="surface23960956">
<path style=" stroke:none;fill-rule:nonzero;fill:rgb(100%,76.470588%,0%);fill-opacity:1;" d="M 28.335938 15.507812 L 28.335938 24.257812 C 28.335938 26.566406 26.445312 28.457031 24.136719 28.457031 L 10.488281 28.457031 C 8.175781 28.457031 6.285156 26.566406 6.285156 24.257812 L 6.285156 10.609375 C 6.285156 8.296875 8.175781 6.40625 10.488281 6.40625 L 24.136719 6.40625 C 26.445312 6.40625 28.335938 8.296875 28.335938 10.609375 "/>
<path style=" stroke:none;fill-rule:nonzero;fill:rgb(86.666667%,6.27451%,12.941176%);fill-opacity:1;" d="M 24.136719 28.808594 L 10.488281 28.808594 C 7.976562 28.808594 5.9375 26.765625 5.9375 24.257812 L 5.9375 10.609375 C 5.9375 8.097656 7.976562 6.058594 10.488281 6.058594 L 24.136719 6.058594 C 26.644531 6.058594 28.6875 8.097656 28.6875 10.609375 C 28.6875 10.800781 28.53125 10.957031 28.335938 10.957031 C 28.144531 10.957031 27.988281 10.800781 27.988281 10.609375 C 27.988281 8.484375 26.257812 6.757812 24.136719 6.757812 L 10.488281 6.757812 C 8.363281 6.757812 6.636719 8.484375 6.636719 10.609375 L 6.636719 24.257812 C 6.636719 26.378906 8.363281 28.109375 10.488281 28.109375 L 24.136719 28.109375 C 26.257812 28.109375 27.988281 26.378906 27.988281 24.257812 L 27.988281 15.507812 C 27.988281 15.3125 28.144531 15.15625 28.335938 15.15625 C 28.53125 15.15625 28.6875 15.3125 28.6875 15.507812 L 28.6875 24.257812 C 28.6875 26.765625 26.644531 28.808594 24.136719 28.808594 Z M 24.136719 28.808594 "/>
<path style=" stroke:none;fill-rule:nonzero;fill:rgb(100%,76.470588%,0%);fill-opacity:1;" d="M 26.761719 21.984375 L 26.761719 23.265625 C 26.761719 25.253906 25.132812 26.882812 23.144531 26.882812 L 11.480469 26.882812 C 9.488281 26.882812 7.863281 25.253906 7.863281 23.265625 L 7.863281 11.601562 C 7.863281 9.609375 9.488281 7.984375 11.480469 7.984375 L 23.261719 7.984375 "/>
<path style=" stroke:none;fill-rule:nonzero;fill:rgb(86.666667%,6.27451%,12.941176%);fill-opacity:1;" d="M 23.144531 27.058594 L 11.480469 27.058594 C 9.386719 27.058594 7.6875 25.355469 7.6875 23.265625 L 7.6875 11.601562 C 7.6875 9.507812 9.386719 7.808594 11.480469 7.808594 L 23.261719 7.808594 C 23.359375 7.808594 23.4375 7.886719 23.4375 7.984375 C 23.4375 8.078125 23.359375 8.15625 23.261719 8.15625 L 11.480469 8.15625 C 9.582031 8.15625 8.035156 9.703125 8.035156 11.601562 L 8.035156 23.265625 C 8.035156 25.164062 9.582031 26.707031 11.480469 26.707031 L 23.144531 26.707031 C 25.042969 26.707031 26.585938 25.164062 26.585938 23.265625 L 26.585938 21.984375 C 26.585938 21.886719 26.664062 21.808594 26.761719 21.808594 C 26.859375 21.808594 26.9375 21.886719 26.9375 21.984375 L 26.9375 23.265625 C 26.9375 25.355469 25.234375 27.058594 23.144531 27.058594 Z M 23.144531 27.058594 "/>
<path style=" stroke:none;fill-rule:nonzero;fill:rgb(86.666667%,6.27451%,12.941176%);fill-opacity:1;" d="M 26.761719 21.457031 C 26.664062 21.457031 26.585938 21.378906 26.585938 21.28125 L 26.585938 19.882812 C 26.585938 19.785156 26.664062 19.707031 26.761719 19.707031 C 26.859375 19.707031 26.9375 19.785156 26.9375 19.882812 L 26.9375 21.28125 C 26.9375 21.378906 26.859375 21.457031 26.761719 21.457031 Z M 26.761719 19.359375 C 26.664062 19.359375 26.585938 19.277344 26.585938 19.183594 L 26.585938 18.484375 C 26.585938 18.386719 26.664062 18.308594 26.761719 18.308594 C 26.859375 18.308594 26.9375 18.386719 26.9375 18.484375 L 26.9375 19.183594 C 26.9375 19.277344 26.859375 19.359375 26.761719 19.359375 Z M 26.761719 19.359375 "/>
<path style=" stroke:none;fill-rule:nonzero;fill:rgb(86.666667%,6.27451%,12.941176%);fill-opacity:1;" d="M 29.824219 11.816406 L 17.835938 23.78125 C 17.796875 23.820312 17.753906 23.847656 17.707031 23.867188 C 17.691406 23.875 17.675781 23.882812 17.65625 23.890625 C 17.628906 23.898438 17.597656 23.90625 17.566406 23.910156 C 17.542969 23.910156 17.523438 23.921875 17.5 23.921875 C 17.476562 23.921875 17.453125 23.910156 17.429688 23.90625 C 17.429688 23.90625 17.425781 23.90625 17.425781 23.90625 C 17.277344 23.929688 17.125 23.894531 17.015625 23.78125 L 12.988281 19.695312 C 12.800781 19.507812 12.800781 19.203125 12.988281 19.015625 C 13.171875 18.828125 13.472656 18.828125 13.65625 19.015625 L 17.300781 22.882812 L 29.152344 11.132812 C 29.335938 10.945312 29.640625 10.945312 29.824219 11.132812 C 30.007812 11.320312 30.007812 11.628906 29.824219 11.816406 Z M 29.824219 11.816406 "/>
<path style=" stroke:none;fill-rule:nonzero;fill:rgb(86.666667%,6.27451%,12.941176%);fill-opacity:1;" d="M 29.488281 10.996094 C 29.609375 10.996094 29.730469 11.042969 29.824219 11.132812 C 30.007812 11.320312 30.007812 11.628906 29.824219 11.816406 L 17.835938 23.78125 C 17.796875 23.820312 17.753906 23.847656 17.707031 23.867188 C 17.691406 23.875 17.675781 23.882812 17.65625 23.890625 C 17.628906 23.898438 17.597656 23.90625 17.566406 23.910156 C 17.542969 23.910156 17.523438 23.921875 17.5 23.921875 C 17.476562 23.921875 17.453125 23.910156 17.429688 23.90625 C 17.429688 23.90625 17.425781 23.90625 17.425781 23.90625 C 17.398438 23.910156 17.367188 23.914062 17.339844 23.914062 C 17.222656 23.914062 17.105469 23.875 17.015625 23.78125 L 12.988281 19.695312 C 12.800781 19.507812 12.800781 19.203125 12.988281 19.015625 C 13.078125 18.921875 13.199219 18.875 13.320312 18.875 C 13.445312 18.875 13.566406 18.921875 13.65625 19.015625 L 17.300781 22.882812 L 29.152344 11.132812 C 29.246094 11.039062 29.367188 10.996094 29.488281 10.996094 M 29.488281 10.644531 C 29.265625 10.644531 29.058594 10.730469 28.902344 10.890625 L 17.308594 22.382812 L 13.914062 18.777344 C 13.75 18.613281 13.542969 18.523438 13.324219 18.523438 C 13.101562 18.523438 12.894531 18.613281 12.738281 18.769531 C 12.417969 19.09375 12.417969 19.617188 12.738281 19.941406 L 16.765625 24.027344 C 16.914062 24.179688 17.121094 24.265625 17.339844 24.265625 C 17.363281 24.265625 17.382812 24.261719 17.40625 24.261719 C 17.429688 24.265625 17.464844 24.269531 17.5 24.269531 C 17.558594 24.269531 17.601562 24.261719 17.628906 24.253906 C 17.671875 24.246094 17.71875 24.238281 17.765625 24.222656 C 17.808594 24.207031 17.835938 24.195312 17.867188 24.179688 C 17.945312 24.140625 18.023438 24.089844 18.085938 24.027344 L 30.070312 12.0625 C 30.390625 11.738281 30.390625 11.210938 30.074219 10.886719 C 29.917969 10.730469 29.710938 10.644531 29.488281 10.644531 Z M 29.488281 10.644531 "/>
</g>
</svg>
